<?xml version="1.0" encoding="utf-8"?>
<!-- Generator: Adobe Illustrator 19.1.0, SVG Export Plug-In . SVG Version: 6.00 Build 0)  -->
<svg version="1.1" id="Layer_1" xmlns="http://www.w3.org/2000/svg" xmlns:xlink="http://www.w3.org/1999/xlink" x="0px" y="0px"
	 viewBox="-449 438 100 100.4" style="enable-background:new -449 438 100 100.4;" xml:space="preserve">
<path d="M-377.9,500.8c0.6-0.2,1-0.8,0.8-1.5c-0.2-0.6-0.8-1-1.5-0.8c-0.6,0.2-1,0.8-0.8,1.5C-379.2,500.6-378.6,501-377.9,500.8z"
	/>
<rect x="-419" y="480.5" width="23.9" height="4.2"/>
<rect x="-428.3" y="480.5" width="4.4" height="4.2"/>
<rect x="-428.3" y="492.3" width="4.4" height="4.2"/>
<rect x="-428.3" y="504.1" width="4.4" height="4.2"/>
<path d="M-370.2,498.5c-0.6-0.2-1.3,0.2-1.5,0.8c-0.2,0.6,0.2,1.3,0.8,1.5c0.6,0.2,1.3-0.2,1.5-0.8
	C-369.2,499.3-369.6,498.7-370.2,498.5z"/>
<rect x="-419" y="480.5" width="23.9" height="4.2"/>
<rect x="-428.3" y="480.5" width="4.4" height="4.2"/>
<rect x="-428.3" y="492.3" width="4.4" height="4.2"/>
<rect x="-428.3" y="504.1" width="4.4" height="4.2"/>
<path d="M-364.8,502.7c-0.5,0.5-0.5,1.2,0,1.7c0.5,0.5,1.2,0.5,1.7,0c0.5-0.5,0.5-1.2,0-1.7C-363.5,502.2-364.3,502.2-364.8,502.7z"
	/>
<rect x="-419" y="480.5" width="23.9" height="4.2"/>
<rect x="-428.3" y="480.5" width="4.4" height="4.2"/>
<rect x="-428.3" y="492.3" width="4.4" height="4.2"/>
<rect x="-428.3" y="504.1" width="4.4" height="4.2"/>
<path d="M-359.8,511.3c0.6-0.2,1-0.8,0.8-1.5c-0.2-0.6-0.8-1-1.5-0.9c-0.6,0.2-1,0.8-0.8,1.5C-361.1,511.1-360.4,511.5-359.8,511.3z
	"/>
<rect x="-419" y="480.5" width="23.9" height="4.2"/>
<rect x="-428.3" y="480.5" width="4.4" height="4.2"/>
<rect x="-428.3" y="492.3" width="4.4" height="4.2"/>
<rect x="-428.3" y="504.1" width="4.4" height="4.2"/>
<path d="M-360.4,519c0.6,0.2,1.3-0.2,1.5-0.8c0.2-0.6-0.2-1.3-0.8-1.5c-0.6-0.2-1.3,0.2-1.5,0.8C-361.4,518.1-361,518.8-360.4,519z"
	/>
<rect x="-419" y="480.5" width="23.9" height="4.2"/>
<rect x="-428.3" y="480.5" width="4.4" height="4.2"/>
<rect x="-428.3" y="492.3" width="4.4" height="4.2"/>
<rect x="-428.3" y="504.1" width="4.4" height="4.2"/>
<path d="M-364.8,523.6c-0.5,0.5-0.5,1.2,0,1.7c0.5,0.5,1.2,0.5,1.7,0c0.5-0.5,0.5-1.2,0-1.7C-363.5,523.1-364.3,523.1-364.8,523.6z"
	/>
<rect x="-419" y="480.5" width="23.9" height="4.2"/>
<rect x="-428.3" y="480.5" width="4.4" height="4.2"/>
<rect x="-428.3" y="492.3" width="4.4" height="4.2"/>
<rect x="-428.3" y="504.1" width="4.4" height="4.2"/>
<path d="M-370.9,527.1c-0.6,0.2-1,0.8-0.8,1.5c0.2,0.6,0.8,1,1.5,0.8c0.6-0.2,1-0.8,0.8-1.5C-369.6,527.3-370.2,527-370.9,527.1z"/>
<rect x="-419" y="480.5" width="23.9" height="4.2"/>
<rect x="-428.3" y="480.5" width="4.4" height="4.2"/>
<rect x="-428.3" y="492.3" width="4.4" height="4.2"/>
<rect x="-428.3" y="504.1" width="4.4" height="4.2"/>
<path d="M-377.9,527.1c-0.6-0.2-1.3,0.2-1.5,0.8c-0.2,0.6,0.2,1.3,0.8,1.5c0.6,0.2,1.3-0.2,1.5-0.8
	C-376.9,527.9-377.3,527.3-377.9,527.1z"/>
<rect x="-419" y="480.5" width="23.9" height="4.2"/>
<rect x="-428.3" y="480.5" width="4.4" height="4.2"/>
<rect x="-428.3" y="492.3" width="4.4" height="4.2"/>
<rect x="-428.3" y="504.1" width="4.4" height="4.2"/>
<path d="M-385.7,523.6c-0.5,0.5-0.5,1.2,0,1.7c0.5,0.5,1.2,0.5,1.7,0c0.5-0.5,0.5-1.2,0-1.7C-384.5,523.1-385.2,523.1-385.7,523.6z"
	/>
<rect x="-419" y="480.5" width="23.9" height="4.2"/>
<rect x="-428.3" y="480.5" width="4.4" height="4.2"/>
<rect x="-428.3" y="492.3" width="4.4" height="4.2"/>
<rect x="-428.3" y="504.1" width="4.4" height="4.2"/>
<path d="M-389,516.7c-0.6,0.2-1,0.8-0.8,1.5c0.2,0.6,0.8,1,1.5,0.8c0.6-0.2,1-0.8,0.8-1.5C-387.7,516.9-388.4,516.5-389,516.7z"/>
<rect x="-419" y="480.5" width="23.9" height="4.2"/>
<rect x="-428.3" y="480.5" width="4.4" height="4.2"/>
<rect x="-428.3" y="492.3" width="4.4" height="4.2"/>
<rect x="-428.3" y="504.1" width="4.4" height="4.2"/>
<path d="M-388.4,509c-0.6-0.2-1.3,0.2-1.5,0.9c-0.2,0.6,0.2,1.3,0.8,1.5c0.6,0.2,1.3-0.2,1.5-0.8
	C-387.4,509.8-387.7,509.2-388.4,509z"/>
<rect x="-419" y="480.5" width="23.9" height="4.2"/>
<rect x="-428.3" y="480.5" width="4.4" height="4.2"/>
<rect x="-428.3" y="492.3" width="4.4" height="4.2"/>
<rect x="-428.3" y="504.1" width="4.4" height="4.2"/>
<path d="M-372.1,511.7c-0.1-0.1-0.3-0.3-0.5-0.4l0,0l-11.5-8.6c-0.5-0.5-1.2-0.5-1.7,0c-0.5,0.5-0.5,1.2,0,1.7l8.6,11.5l0,0
	c0.1,0.2,0.2,0.3,0.4,0.5c1.3,1.3,3.3,1.3,4.6,0C-370.8,515-370.8,513-372.1,511.7z"/>
<rect x="-419" y="480.5" width="23.9" height="4.2"/>
<rect x="-428.3" y="480.5" width="4.4" height="4.2"/>
<rect x="-428.3" y="492.3" width="4.4" height="4.2"/>
<rect x="-428.3" y="504.1" width="4.4" height="4.2"/>
<path d="M-411.4,452c2.4,0,4.4-1.9,4.4-4.3c0-2.4-1.9-4.4-4.4-4.4c-2.4,0-4.3,2-4.3,4.4C-415.7,450.1-413.8,452-411.4,452z"/>
<rect x="-419" y="480.5" width="23.9" height="4.2"/>
<rect x="-428.3" y="480.5" width="4.4" height="4.2"/>
<rect x="-428.3" y="492.3" width="4.4" height="4.2"/>
<rect x="-428.3" y="504.1" width="4.4" height="4.2"/>
<path d="M-355.7,498.3l1.2-1.2l0.4,0.4c0.4,0.4,0.9,0.4,1.3,0l1.6-1.6c0.3-0.4,0.3-0.9,0-1.3l0,0l-3.8-3.8c-0.3-0.3-0.9-0.3-1.3,0
	l-1.6,1.6c-0.4,0.4-0.4,0.9,0,1.3l0.4,0.4l-1.2,1.2c-2.8-2.4-6.2-4.2-9.9-5.1c2.1-1.7,3.4-4.3,3.4-7.2c0-5.1-4.2-9.3-9.3-9.3
	c-0.1,0-0.1,0-0.2,0v-18.4c0-6.7-5.4-12.1-12.1-12.1h-12.9c-1.3-2.6-3.8-4.6-6.7-5.2c0,0,0,0-0.1,0c-0.1,0-0.1,0-0.2,0
	c-0.4,0-0.7,0.3-0.7,0.7c0,0.3,0.2,0.6,0.5,0.7c3.1,1.7,5.2,4.9,5.2,8.7h8.2c5.5,0,9.9,4.4,9.9,9.9v3.1c0,1.6-1.3,3-3,3h-50
	c-1.7,0-3-1.4-3-3v-3.1c0-5.5,4.4-9.9,9.9-9.9h8.2c0-1.7,0.5-3.4,1.2-4.8h-15.7c-6.7,0-12.1,5.4-12.1,12.1v62v0
	c0,6.7,5.4,12.1,12.1,12.1h42.3c4.5,5.5,11.3,9.1,19,9.1c13.5,0,24.4-10.9,24.4-24.4C-350,508-352.1,502.5-355.7,498.3z
	 M-374.4,476.8c3.5,0,6.3,2.8,6.3,6.3c0,2.7-1.7,5-4.1,5.9v-4h0.6c0.5,0,0.9-0.4,0.9-0.9v-2.2c0-0.5-0.4-0.9-0.9-0.9h0h-5.3h0
	c-0.5,0-0.9,0.4-0.9,0.9v2.2c0,0.5,0.4,0.9,0.9,0.9h0.6v4c-2.5-0.8-4.2-3.2-4.2-5.9C-380.6,479.6-377.8,476.8-374.4,476.8z
	 M-396.7,504.1H-419v4.2h20.8c-0.4,1.8-0.7,3.7-0.7,5.7c0,1.7,0.2,3.3,0.5,4.9h-33.4c-1.7,0-3-1.3-3-3v-41.9c0-1.7,1.3-3,3-3h41.7
	c1.7,0,3,1.3,3,3v19.2c-1.1,0.7-2.2,1.4-3.1,2.2l-1.2-1.2l0.4-0.4c0.3-0.4,0.3-0.9,0-1.3l-1.6-1.6c-0.3-0.3-0.9-0.3-1.3,0l-1.4,1.4
	H-419v4.2h22l1,1c0.4,0.4,0.9,0.4,1.3,0l0.4-0.4l1.2,1.2C-394.6,500-395.8,502-396.7,504.1z M-374.4,532.4
	c-10.2,0-18.4-8.2-18.4-18.4c0-10.2,8.2-18.4,18.4-18.4c10.2,0,18.4,8.2,18.4,18.4C-356,524.2-364.2,532.4-374.4,532.4z"/>
<rect x="-419" y="480.5" width="23.9" height="4.2"/>
<rect x="-428.3" y="480.5" width="4.4" height="4.2"/>
<rect x="-428.3" y="492.3" width="4.4" height="4.2"/>
<rect x="-428.3" y="504.1" width="4.4" height="4.2"/>
</svg>
